<svg width="297" height="307" viewBox="0 0 297 307" fill="none" xmlns="http://www.w3.org/2000/svg">
<path d="M63.0859 168.951C63.2685 180.913 63.1643 192.899 63.1643 204.862C63.1643 206.009 63.3211 207.156 63.4779 208.865C120.375 179.439 176.724 150.34 233.83 120.796C155.684 80.3904 78.192 40.3122 0.203271 0V194.561C0.203271 194.561 0.0987345 194.515 0.0464633 194.491V272.587C-0.0580792 287.102 0.0464633 307 0.0464633 307C1.64074 306.274 2.81685 305.759 3.96682 305.174C15.2835 299.345 26.5219 293.399 37.917 287.71C38.8056 287.265 39.5114 286.797 40.1125 286.282L297 153.43C283.985 146.687 270.943 139.945 257.927 133.18C255.418 131.869 253.719 132.103 251.367 133.321C214.202 152.61 176.985 171.83 139.794 191.073C107.177 207.929 74.5855 224.83 41.9943 241.709C41.9943 233.773 41.9681 225.837 41.9681 217.924C42.1249 217.293 42.2033 216.567 42.2033 215.748C42.0727 167.312 42.0988 118.9 42.0988 70.4642V65.2907C78.2704 84.0187 113.476 102.232 149.124 120.679C147.269 121.733 145.779 122.599 144.263 123.395C118.363 136.785 92.4884 150.199 66.5357 163.496C63.9483 164.831 63.0076 166.235 63.0333 168.904L63.0859 168.951Z" fill="#272525"/>
<path d="M63.04 96.2186V145.59L111.132 120.916L63.04 96.2186Z" fill="#DC1B22"/>
</svg>
