<svg width="172" height="162" viewBox="0 0 172 162" fill="none" xmlns="http://www.w3.org/2000/svg">
<path d="M43 0C27.1678 0 14.3333 12.0883 14.3333 27V54.0633C14.3333 61.2217 14.2231 64.785 13.0559 67.5282C12.1584 69.6377 10.2592 71.9967 3.96173 74.9623C1.53381 76.1056 0 78.4428 0 80.9996C0 83.5562 1.53352 85.8936 3.96145 87.0371C10.2582 90.0025 12.156 92.3604 13.0542 94.4756C14.2234 97.2285 14.3333 100.809 14.3333 108V135C14.3333 149.912 27.1678 162 43 162C46.958 162 50.1667 158.977 50.1667 155.25C50.1667 151.523 46.958 148.5 43 148.5C35.084 148.5 28.6667 142.456 28.6667 135L28.6671 107.21C28.6714 101.147 28.676 94.9094 26.3624 89.4618C24.9704 86.184 22.8837 83.4249 20.077 81.0003C22.8826 78.5777 24.9685 75.8221 26.3607 72.5501C28.676 67.1085 28.6714 60.8851 28.6671 54.8505L28.6667 27C28.6667 19.5442 35.084 13.5 43 13.5C46.958 13.5 50.1667 10.4779 50.1667 6.75C50.1667 3.02211 46.958 0 43 0ZM129 0C144.833 0 157.667 12.0883 157.667 27V54.0633C157.667 61.2217 157.777 64.785 158.944 67.5282C159.841 69.6377 161.74 71.9967 168.038 74.9623C170.466 76.1056 172 78.4428 172 80.9996C172 83.5562 170.466 85.8936 168.038 87.0371C161.742 90.0025 159.844 92.3604 158.945 94.4756C157.777 97.2285 157.667 100.809 157.667 108V135C157.667 149.912 144.833 162 129 162C125.043 162 121.833 158.977 121.833 155.25C121.833 151.523 125.043 148.5 129 148.5C136.916 148.5 143.333 142.456 143.333 135V107.21C143.329 101.147 143.325 94.9094 145.638 89.4618C147.03 86.184 149.117 83.4249 151.923 81.0003C149.117 78.5777 147.031 75.8221 145.64 72.5501C143.323 67.1085 143.329 60.8851 143.333 54.8505V27C143.333 19.5442 136.916 13.5 129 13.5C125.043 13.5 121.833 10.4779 121.833 6.75C121.833 3.02211 125.043 0 129 0Z" fill="black"/>
<path d="M71.4312 37.25C70.5062 36.9125 69.4187 37.0562 68.5875 37.6375C67.7562 38.2187 67.2625 39.175 67.2625 40.1875V51.5375C67.2625 53.2562 65.8562 54.6625 64.1375 54.6625C62.4187 54.6625 61.0125 53.2562 61.0125 51.5375V40.1875C61.0125 39.175 60.5187 38.225 59.6875 37.6375C58.8625 37.05 57.7812 36.9125 56.8437 37.25C48.1187 40.3437 42.2625 48.6 42.2625 57.7937C42.2625 66.2875 47.2 73.975 54.7625 77.5562V115.375C54.7625 120.544 58.9687 124.75 64.1375 124.75C69.3062 124.75 73.5125 120.544 73.5125 115.375V77.5562C81.075 73.975 86.0125 66.2875 86.0125 57.7937C86.0125 48.6 80.15 40.3437 71.4312 37.25ZM69.35 72.525C68.1 72.9625 67.2625 74.15 67.2625 75.475V115.381C67.2625 117.1 65.8562 118.506 64.1375 118.506C62.4187 118.506 61.0125 117.1 61.0125 115.381V75.475C61.0125 74.15 60.175 72.9687 58.925 72.525C52.7 70.325 48.5125 64.4062 48.5125 57.8C48.5125 52.85 50.9062 48.2812 54.7625 45.3812V51.55C54.7625 56.7187 58.9687 60.925 64.1375 60.925C69.3062 60.925 73.5125 56.7187 73.5125 51.55V45.3812C77.3687 48.2812 79.7625 52.85 79.7625 57.8C79.7625 64.4125 75.575 70.3312 69.35 72.525ZM120.375 81H117.262V56.7375L120.056 51.1437C120.431 50.4062 120.487 49.5437 120.225 48.7562L117.1 39.3812C116.675 38.1062 115.475 37.2437 114.131 37.2437H101.631C100.287 37.2437 99.0936 38.1062 98.6624 39.3812L95.5374 48.7562C95.2749 49.5437 95.3374 50.4062 95.7062 51.1437L98.4999 56.7375V81H95.3749C93.6499 81 92.2499 82.4 92.2499 84.125V109.125C92.2499 117.744 99.2561 124.75 107.875 124.75C116.494 124.75 123.5 117.744 123.5 109.125V84.125C123.5 82.4 122.1 81 120.375 81ZM103.887 43.5062H111.881L113.881 49.5187L111.337 54.6062C111.125 55.0375 111.006 55.5187 111.006 56.0062V81.0062H104.756V56.0062C104.756 55.525 104.644 55.0437 104.431 54.6062L101.887 49.5187L103.887 43.5062ZM117.262 109.125C117.262 114.294 113.056 118.5 107.887 118.5C102.719 118.5 98.5124 114.294 98.5124 109.125V87.25H117.262V109.125Z" fill="black"/>
</svg>
